<?xml version="1.0" standalone="no"?>
<!DOCTYPE svg PUBLIC "-//W3C//DTD SVG 20010904//EN"
 "http://www.w3.org/TR/2001/REC-SVG-20010904/DTD/svg10.dtd">
<svg version="1.0" xmlns="http://www.w3.org/2000/svg"
 width="640.000000pt" height="449.000000pt" viewBox="0 0 640.000000 449.000000"
 preserveAspectRatio="xMidYMid meet">

<g transform="translate(0.000000,449.000000) scale(0.100000,-0.100000)"
fill="#000000" stroke="none">
<path d="M0 2250 l0 -2240 3200 0 3200 0 0 2240 0 2240 -3200 0 -3200 0 0
-2240z m4518 859 c724 -463 1323 -847 1330 -853 10 -10 -267 -191 -1313 -860
-730 -466 -1332 -846 -1339 -844 -6 2 -607 383 -1334 848 -1263 807 -1321 846
-1301 860 25 17 2632 1688 2637 1689 1 1 595 -378 1320 -840z"/>
<path d="M3028 3354 c-320 -49 -616 -248 -781 -523 -69 -114 -69 -108 10 -100
117 13 461 10 593 -6 500 -58 978 -247 1365 -537 43 -33 86 -63 93 -66 13 -4
14 18 9 149 -6 174 -30 288 -90 427 -199 460 -700 734 -1199 656z m554 -694
c20 0 20 -1 4 -19 -9 -10 -14 -25 -10 -35 7 -17 -11 -23 -21 -6 -4 7 -13 6
-26 -1 -18 -9 -20 -8 -17 9 2 10 -3 26 -11 35 -12 15 -11 17 7 17 11 0 23 8
27 18 6 16 7 16 16 0 6 -10 19 -18 31 -18z"/>
<path d="M2371 2663 c1 -26 3 -40 6 -30 3 10 14 17 28 17 14 0 25 -7 28 -17 2
-10 3 2 3 27 -1 43 -2 45 -33 48 l-33 3 1 -48z m55 26 c7 -12 -12 -29 -33 -29
-7 0 -13 9 -13 20 0 22 34 28 46 9z"/>
<path d="M2500 2665 c0 -46 0 -46 33 -43 30 3 32 5 32 43 0 38 -2 40 -32 43
-33 3 -33 3 -33 -43z m55 0 c0 -23 -5 -31 -22 -33 -20 -3 -23 1 -23 33 0 32 3
36 23 33 17 -2 22 -10 22 -33z"/>
<path d="M2628 2665 c-2 -37 0 -45 14 -45 9 0 22 -1 30 -3 7 -2 3 1 -9 7 -31
14 -29 34 5 39 l27 4 -27 2 c-17 0 -28 7 -28 15 0 8 12 17 28 19 26 4 26 4 -4
6 -31 1 -32 -1 -36 -44z"/>
<path d="M2242 2688 c-21 -21 -15 -68 11 -77 43 -16 74 19 57 64 -10 27 -47
34 -68 13z m56 -32 c2 -16 -2 -32 -9 -37 -20 -12 -49 9 -49 35 0 29 9 38 35
34 14 -2 21 -12 23 -32z"/>
<path d="M2750 2678 c0 -13 -3 -34 -6 -48 -4 -20 -3 -22 5 -10 6 8 11 26 12
40 0 23 1 23 9 5 8 -18 9 -17 9 8 1 18 -4 27 -14 27 -9 0 -15 -9 -15 -22z"/>
<path d="M2817 2683 c-12 -11 -8 -25 5 -17 8 5 9 -3 5 -30 -3 -22 -2 -34 4
-31 5 4 9 24 9 46 0 37 -8 48 -23 32z"/>
<path d="M3020 2646 c0 -7 -3 -27 -6 -43 -5 -28 -3 -31 24 -35 17 -2 29 -1 26
4 -3 4 -14 8 -25 8 -30 0 -17 24 17 31 l29 7 -27 1 c-34 1 -38 28 -5 34 19 4
18 4 -5 6 -18 0 -28 -4 -28 -13z"/>
<path d="M2792 2634 c-7 -8 -10 -19 -6 -26 5 -7 10 -3 16 12 10 28 7 33 -10
14z"/>
<path d="M3251 2573 c-14 -50 -14 -60 2 -41 6 9 23 18 37 20 27 3 36 39 12 44
-7 1 -8 0 -2 -3 20 -10 10 -33 -15 -33 -28 0 -29 3 -15 31 7 12 7 19 1 19 -6
0 -15 -17 -20 -37z"/>
<path d="M2265 2579 c-152 -15 -140 -8 -161 -102 -25 -113 -26 -340 -1 -457
73 -339 300 -629 611 -780 152 -74 260 -100 439 -107 216 -8 367 22 539 107
117 58 184 106 285 203 131 127 222 266 283 434 l23 63 -24 20 c-13 11 -65 52
-116 91 -386 294 -862 479 -1357 528 -124 12 -401 12 -521 0z m39 -114 c3 -8
12 -15 21 -15 8 0 15 -4 15 -10 0 -5 -5 -10 -11 -10 -7 0 -9 -10 -7 -25 6 -27
-1 -32 -20 -13 -9 9 -15 9 -24 0 -18 -18 -27 -15 -21 8 3 11 0 27 -7 35 -10
13 -9 15 9 15 12 0 21 6 21 15 0 8 4 15 9 15 5 0 11 -7 15 -15z m1184 -135
c12 0 13 -3 5 -11 -6 -6 -9 -17 -7 -24 3 -7 -4 -11 -18 -11 -29 1 -41 36 -19
53 9 6 17 7 19 2 2 -5 11 -9 20 -9z m-691 -110 c13 0 14 -3 5 -12 -7 -7 -12
-19 -12 -27 0 -11 -10 -16 -29 -17 -21 -1 -28 3 -24 13 3 7 0 20 -7 28 -10 12
-9 15 4 15 9 0 19 7 23 16 5 15 7 15 15 0 5 -9 16 -16 25 -16z m423 -140 c0
-5 7 -10 15 -10 17 0 20 -16 5 -25 -5 -3 -7 -11 -4 -18 3 -8 -7 -12 -26 -13
-22 -1 -30 3 -26 12 3 7 1 16 -4 19 -15 9 -12 25 5 25 8 0 15 5 15 10 0 6 5
10 10 10 6 0 10 -4 10 -10z m-716 -45 c-9 -22 -32 -25 -37 -5 -5 20 9 30 30
23 6 -3 9 -11 7 -18z m-88 -55 c13 0 14 -3 4 -15 -7 -8 -10 -21 -7 -28 3 -9
-5 -13 -29 -13 -25 0 -34 4 -34 16 0 9 -5 21 -12 28 -9 9 -8 12 5 12 9 0 22
10 28 22 l12 22 8 -22 c5 -12 16 -22 25 -22z m931 -10 c13 0 14 -3 5 -12 -7
-7 -12 -21 -12 -32 0 -15 -3 -17 -12 -8 -8 8 -17 8 -31 0 -17 -9 -19 -8 -13 7
3 10 1 24 -5 31 -9 11 -8 14 4 14 8 0 18 8 22 18 6 16 7 16 16 0 6 -10 17 -18
26 -18z m-270 -10 c10 0 13 -6 9 -16 -3 -9 -6 -19 -6 -24 0 -4 -11 -7 -25 -7
-14 0 -25 3 -25 7 0 5 -3 15 -6 24 -4 11 -1 16 10 16 9 0 16 6 17 13 0 10 2
10 6 0 2 -7 12 -13 20 -13z m-782 -80 c10 0 11 -5 3 -22 -7 -14 -20 -23 -33
-23 -13 0 -26 9 -32 23 -9 17 -8 22 2 22 7 0 16 8 20 18 6 16 7 16 16 0 6 -10
16 -18 24 -18z m858 -6 c-6 -17 -30 -19 -35 -2 -3 7 0 18 6 24 14 15 37 -2 29
-22z m871 -4 c19 -1 20 -2 4 -14 -12 -8 -15 -20 -11 -37 6 -22 5 -23 -11 -10
-14 12 -21 12 -38 2 -17 -11 -19 -10 -16 7 2 10 -3 26 -11 35 -12 15 -11 17 7
17 13 0 23 9 28 23 l7 22 10 -22 c6 -13 19 -23 31 -23z m-1404 20 c0 -5 7 -10
15 -10 17 0 20 -16 5 -25 -5 -3 -7 -11 -4 -19 3 -9 -5 -13 -26 -13 -17 0 -30
6 -30 13 0 7 -3 19 -6 28 -4 11 -1 16 10 16 9 0 16 5 16 10 0 6 5 10 10 10 6
0 10 -4 10 -10z m1557 -54 c-6 -12 -21 -22 -33 -22 -13 -1 -21 2 -18 8 3 5 0
15 -6 23 -10 12 -9 15 4 15 9 0 16 4 16 9 0 5 10 4 23 -2 19 -9 22 -14 14 -31z
m-118 -76 c6 0 11 -4 11 -10 0 -5 -5 -10 -11 -10 -6 0 -8 -8 -5 -17 5 -15 0
-18 -24 -18 -20 0 -30 5 -30 16 0 8 -5 20 -12 27 -9 9 -7 12 10 12 14 0 22 6
22 18 1 16 1 16 14 0 7 -10 18 -18 25 -18z m-1466 -29 c-3 -11 -14 -18 -28
-18 -16 0 -22 4 -18 13 3 8 -1 14 -8 14 -8 0 -5 7 7 19 17 16 21 17 35 4 9 -8
15 -22 12 -32z m651 9 c20 -1 20 -1 3 -15 -14 -10 -17 -20 -11 -37 6 -20 5
-21 -9 -10 -9 8 -25 11 -37 7 -15 -5 -20 -2 -20 12 0 11 -5 24 -12 31 -9 9 -7
12 9 12 14 0 24 8 29 23 l7 22 10 -22 c6 -13 19 -23 31 -23z m763 -70 c13 0
13 -3 3 -15 -7 -8 -10 -22 -6 -30 4 -12 2 -13 -13 -6 -12 7 -22 6 -29 -1 -9
-9 -12 -7 -12 8 0 11 -5 25 -12 32 -9 9 -8 12 5 12 10 0 20 7 24 16 5 15 7 15
15 0 5 -9 16 -16 25 -16z m-1246 -20 c21 0 26 -15 8 -26 -6 -3 -9 -14 -6 -23
3 -14 -2 -17 -29 -17 -25 1 -34 6 -34 18 0 9 -4 20 -10 23 -17 10 -11 25 9 25
10 0 22 8 26 18 8 16 8 16 12 0 3 -10 13 -18 24 -18z m701 -58 c-3 -17 -8 -20
-17 -12 -10 8 -15 7 -21 -2 -6 -9 -10 -6 -14 12 -4 15 0 30 10 40 13 13 17 13
30 0 9 -8 14 -25 12 -38z m308 38 c0 -5 7 -10 16 -10 13 0 14 -3 4 -15 -6 -8
-10 -18 -7 -22 3 -4 -5 -8 -17 -8 -14 0 -27 9 -33 23 -9 17 -8 22 3 22 8 0 14
5 14 10 0 6 5 10 10 10 6 0 10 -4 10 -10z m110 0 c0 -5 7 -10 16 -10 13 0 14
-3 4 -15 -6 -8 -10 -18 -7 -22 3 -4 -5 -8 -17 -8 -14 0 -27 9 -33 23 -9 17 -8
22 3 22 8 0 14 5 14 10 0 6 5 10 10 10 6 0 10 -4 10 -10z m-227 -59 c-7 -27
-49 -25 -49 3 0 11 5 26 11 33 14 16 44 -12 38 -36z m142 -59 c11 -6 14 -12 8
-12 -7 0 -13 -8 -13 -17 0 -13 -8 -18 -29 -19 -20 -1 -28 3 -24 11 2 7 -1 16
-7 20 -6 4 -2 13 12 25 13 10 25 15 28 11 3 -4 14 -13 25 -19z m-240 -22 c8 0
15 -4 15 -10 0 -5 -5 -10 -11 -10 -6 0 -9 -8 -6 -18 3 -15 -1 -19 -24 -18 -19
1 -29 6 -29 17 0 8 -5 20 -12 27 -9 9 -8 12 5 12 10 0 20 7 24 16 5 15 7 15
15 0 5 -9 16 -16 23 -16z m233 -116 c-4 -6 -5 -13 -2 -16 2 -3 -6 -5 -20 -5
-29 0 -38 24 -17 48 12 15 15 15 31 0 10 -9 13 -20 8 -27z m-568 -19 c0 -8 -7
-15 -15 -15 -16 0 -20 12 -8 23 11 12 23 8 23 -8z"/>
<path d="M3362 2530 c-5 -23 -6 -40 -1 -40 5 0 9 7 9 15 0 28 35 12 43 -20 4
-15 5 -14 6 8 0 15 6 27 11 27 18 0 11 29 -9 40 -35 18 -48 11 -59 -30z m58
20 c11 -7 12 -12 3 -21 -15 -15 -43 -5 -43 16 0 17 18 19 40 5z"/>
<path d="M3492 2508 c-30 -30 -3 -82 40 -76 29 4 47 50 28 72 -15 19 -51 21
-68 4z m62 -14 c8 -22 -11 -54 -34 -54 -25 0 -33 15 -26 46 7 28 50 34 60 8z"/>
<path d="M3622 2458 c-21 -21 -14 -66 11 -79 22 -12 22 -12 4 9 -22 24 -19 50
6 66 15 9 21 7 32 -8 8 -11 17 -17 20 -14 9 9 -25 38 -44 38 -9 0 -22 -5 -29
-12z"/>
<path d="M3664 2394 c-2 -29 12 -32 19 -5 3 11 0 22 -7 24 -6 3 -12 -6 -12
-19z"/>
<path d="M3740 2380 c-11 -22 -16 -40 -11 -40 5 0 11 5 13 12 7 21 41 0 35
-22 -3 -11 -1 -20 4 -20 5 0 9 8 9 19 0 10 7 24 15 31 22 18 19 28 -15 45
l-29 15 -21 -40z m58 -4 c3 -13 -1 -17 -14 -14 -11 2 -20 11 -22 22 -3 13 1
17 14 14 11 -2 20 -11 22 -22z"/>
<path d="M3852 2320 l-22 -39 32 -16 33 -16 -25 20 c-19 15 -22 23 -14 31 9 9
18 9 35 0 24 -11 24 -11 -1 9 -31 24 -20 38 17 22 l28 -12 -25 21 c-14 11 -27
20 -30 20 -3 0 -15 -18 -28 -40z"/>
<path d="M3965 2280 c-3 -5 1 -20 10 -33 9 -14 13 -32 9 -43 -7 -18 -6 -18 12
-2 17 17 17 18 -4 41 -27 29 -28 37 -2 37 11 0 20 -7 20 -15 0 -8 5 -15 10
-15 7 0 7 6 0 20 -11 21 -44 27 -55 10z"/>
<path d="M3940 2228 c0 -9 5 -20 11 -23 17 -11 18 -2 3 19 -12 17 -14 17 -14
4z"/>
<path d="M4070 2202 c0 -11 7 -25 15 -32 21 -17 19 -30 -4 -30 -10 0 -22 7
-25 16 -4 9 -9 14 -13 11 -10 -10 18 -37 39 -37 26 0 34 27 14 49 -9 10 -16
21 -16 24 0 14 29 6 40 -10 10 -16 10 -16 8 2 -4 28 -58 35 -58 7z"/>
<path d="M4167 2132 c-30 -33 -16 -82 23 -82 20 0 50 31 50 52 0 16 -31 48
-47 48 -5 0 -17 -8 -26 -18z m63 -26 c0 -20 -37 -49 -55 -43 -20 8 -19 41 1
61 12 12 20 13 35 6 10 -6 19 -17 19 -24z"/>
</g>
</svg>
